<svg width="32" height="32" viewBox="0 0 32 32" fill="none" xmlns="http://www.w3.org/2000/svg">
<path d="M16.36 2.99988C8.98138 2.99988 3 8.98126 3 16.3599C3 23.7385 8.98138 29.7199 16.36 29.7199C23.7386 29.7199 29.72 23.7385 29.72 16.3599C29.72 8.98126 23.7386 2.99988 16.36 2.99988ZM21.498 18.073C21.498 18.073 22.6796 19.2392 22.9704 19.7806C22.9788 19.7917 22.9829 19.8029 22.9857 19.8084C23.104 20.0074 23.1318 20.1619 23.0734 20.2774C22.976 20.4695 22.642 20.5641 22.5279 20.5725H20.4404C20.2956 20.5725 19.9922 20.5349 19.6248 20.2816C19.3423 20.084 19.064 19.7597 18.7926 19.4438C18.3877 18.9734 18.037 18.5671 17.6835 18.5671C17.6386 18.567 17.594 18.574 17.5513 18.5879C17.2841 18.6742 16.9417 19.0555 16.9417 20.0715C16.9417 20.3888 16.6912 20.5711 16.5145 20.5711H15.5584C15.2327 20.5711 13.5363 20.4569 12.0333 18.8718C10.1935 16.9305 8.53744 13.0366 8.52352 13.0004C8.41915 12.7485 8.63486 12.6135 8.87005 12.6135H10.9784C11.2595 12.6135 11.3514 12.7847 11.4154 12.9364C11.4906 13.1131 11.7661 13.8159 12.2184 14.6064C12.9518 15.8951 13.4013 16.4183 13.7618 16.4183C13.8293 16.4175 13.8957 16.4003 13.9552 16.3682C14.4256 16.1066 14.3379 14.4296 14.317 14.0817C14.317 14.0163 14.3156 13.3316 14.0749 13.0032C13.9023 12.7652 13.6087 12.6747 13.4305 12.6413C13.5026 12.5419 13.5976 12.4612 13.7075 12.4062C14.0303 12.2447 14.6121 12.2211 15.1896 12.2211H15.5111C16.1373 12.2294 16.2988 12.2698 16.5256 12.3268C16.9849 12.4368 16.9946 12.7332 16.9542 13.7477C16.9417 14.0358 16.9292 14.3614 16.9292 14.7455C16.9292 14.829 16.925 14.9181 16.925 15.0127C16.9111 15.5291 16.8944 16.1149 17.259 16.3557C17.3066 16.3855 17.3615 16.4014 17.4177 16.4016C17.5443 16.4016 17.9256 16.4016 18.9582 14.63C19.2767 14.0598 19.5534 13.4673 19.7863 12.8571C19.8072 12.8209 19.8684 12.7095 19.9408 12.6664C19.9942 12.6392 20.0534 12.6253 20.1133 12.626H22.5919C22.8619 12.626 23.047 12.6664 23.0817 12.7708C23.143 12.9364 23.0706 13.4416 21.9392 14.9738L21.434 15.6404C20.4084 16.9847 20.4084 17.0529 21.498 18.073Z" fill="white"/>
</svg>
