<svg width="32" height="32" viewBox="0 0 32 32" fill="none" xmlns="http://www.w3.org/2000/svg">
<path d="M16 2.66663C8.63996 2.66663 2.66663 8.63996 2.66663 16C2.66663 23.36 8.63996 29.3333 16 29.3333C23.36 29.3333 29.3333 23.36 29.3333 16C29.3333 8.63996 23.36 2.66663 16 2.66663ZM22.1866 11.7333C21.9866 13.84 21.12 18.96 20.68 21.32C20.4933 22.32 20.12 22.6533 19.7733 22.6933C19 22.76 18.4133 22.1866 17.6666 21.6933C16.4933 20.92 15.8266 20.44 14.6933 19.6933C13.3733 18.8266 14.2266 18.3466 14.9866 17.5733C15.1866 17.3733 18.6 14.2666 18.6666 13.9866C18.6759 13.9442 18.6747 13.9002 18.663 13.8584C18.6514 13.8165 18.6298 13.7782 18.6 13.7466C18.52 13.68 18.4133 13.7066 18.32 13.72C18.2 13.7466 16.3333 14.9866 12.6933 17.44C12.16 17.8 11.68 17.9866 11.2533 17.9733C10.7733 17.96 9.86663 17.7066 9.18663 17.48C8.34663 17.2133 7.69329 17.0666 7.74663 16.6C7.77329 16.36 8.10663 16.12 8.73329 15.8666C12.6266 14.1733 15.2133 13.0533 16.5066 12.52C20.2133 10.9733 20.9733 10.7066 21.48 10.7066C21.5866 10.7066 21.84 10.7333 22 10.8666C22.1333 10.9733 22.1733 11.12 22.1866 11.2266C22.1733 11.3066 22.2 11.5466 22.1866 11.7333Z" fill="white"/>
</svg>
