<svg width="50" height="50" viewBox="0 0 50 50" fill="none" xmlns="http://www.w3.org/2000/svg">
<rect width="50" height="50" rx="4" fill="#E5EEEB"/>
<g clip-path="url(#clip0_1_248)">
<path d="M19.0345 31.9277H22.678V32.2301H19.0345V31.9277ZM35.0395 31.9277H43.0001V32.2301H35.0395V31.9277ZM34.8446 20.8785C35.1761 21.3344 35.4439 21.7347 35.6572 22.0913C35.726 20.9453 35.9244 20.2458 36.1207 19.8439V23.0016C36.223 23.2606 36.2965 23.5329 36.3005 23.8194C36.3007 24.0229 36.2609 24.2096 36.1814 24.3775C36.164 24.4151 36.1427 24.4512 36.1207 24.4869V30.3886C36.1207 30.6192 36.2123 30.8403 36.3753 31.0034C36.5384 31.1664 36.7595 31.258 36.9901 31.258C37.2207 31.258 37.4418 31.1664 37.6048 31.0034C37.7679 30.8403 37.8595 30.6192 37.8595 30.3886V24.0419H38.1852V30.3886C38.1852 30.6191 38.2768 30.8402 38.4398 31.0033C38.6028 31.1663 38.8239 31.2579 39.0545 31.2579C39.285 31.2579 39.5061 31.1663 39.6691 31.0033C39.8322 30.8402 39.9237 30.6191 39.9237 30.3886V23.2884C37.9405 21.1586 36.5849 18.8081 36.2572 18.2166C36.1947 18.2374 36.1292 18.2637 36.061 18.2982C35.6828 18.4856 35.2752 18.8957 34.9898 19.6227C34.8698 19.9258 34.7665 20.2863 34.6864 20.7173C34.7465 20.7633 34.7998 20.8176 34.8446 20.8785ZM34.5091 23.3365L34.5105 23.3967L34.5426 23.4034C34.5316 23.381 34.5204 23.3587 34.5091 23.3365Z" fill="#45766A"/>
<path d="M37.4385 19.6933C38.046 20.6196 38.8962 21.7998 39.9236 22.9309V19.8456C39.9653 19.931 40.0073 20.0291 40.0488 20.1435C40.2469 20.6928 40.4136 21.5941 40.413 23.0006C40.413 23.3883 40.4006 23.8142 40.3732 24.2819C40.3687 24.3584 40.3799 24.4351 40.4061 24.5072C40.4324 24.5793 40.4731 24.6452 40.5257 24.701C40.5784 24.7567 40.6419 24.8011 40.7123 24.8315C40.7827 24.8618 40.8586 24.8774 40.9353 24.8773C41.0787 24.8771 41.2166 24.8221 41.3209 24.7237C41.4252 24.6252 41.4879 24.4907 41.4963 24.3476C41.5231 23.8991 41.537 23.4499 41.5379 23.0006C41.5351 20.8787 41.1963 19.7043 40.7339 18.9981C40.5031 18.6478 40.2328 18.4228 39.9832 18.2981C39.7339 18.1726 39.5148 18.1473 39.3903 18.1478L39.388 18.1479C39.3853 18.1478 39.383 18.1471 39.3802 18.1471H36.664C36.6608 18.1471 36.6576 18.1481 36.6545 18.1481H36.6539C36.603 18.1483 36.5522 18.1519 36.5018 18.1591C36.6579 18.4375 36.9781 18.9916 37.4385 19.6933Z" fill="#45766A"/>
<path d="M38.0221 17.7464C38.8957 17.7464 39.6039 17.0382 39.6039 16.1645C39.6039 15.2909 38.8957 14.5826 38.0221 14.5826C37.1484 14.5826 36.4402 15.2909 36.4402 16.1645C36.4402 17.0382 37.1484 17.7464 38.0221 17.7464Z" fill="#45766A"/>
<path d="M11.7654 25.8766V40.0222C11.7654 40.8484 12.4352 41.5177 13.2609 41.5177C14.0869 41.5177 14.7567 40.8484 14.7567 40.0222V29.1024H15.3174V40.0222C15.3174 40.8484 15.9871 41.5177 16.8129 41.5177C17.6388 41.5177 18.3086 40.8484 18.3086 40.0222V21.8822C18.3893 22.0491 18.4612 22.2203 18.5239 22.3948C18.8648 23.3399 19.1516 24.8904 19.1506 27.3107C19.1506 27.9777 19.1291 28.7105 19.0824 29.5153C19.0512 30.0488 19.4585 30.5064 19.9922 30.5379C20.2484 30.5528 20.5001 30.4653 20.6918 30.2947C20.8835 30.1241 20.9996 29.8843 21.0146 29.6281C21.0635 28.7893 21.0862 28.0193 21.0862 27.3109C21.0813 23.6596 20.4982 21.6391 19.7031 20.424C19.3056 19.8209 18.8407 19.434 18.4113 19.2198C17.9951 19.0101 17.6293 18.9637 17.4116 18.9616C17.3992 18.9611 17.3866 18.9596 17.3738 18.9596H16.806L16.5086 21.2845L15.3292 19.8631L16.1445 18.9596H13.9293L14.7446 19.8631L13.5652 21.2845L13.2678 18.9596H12.7003C12.6641 18.9596 12.6284 18.9622 12.5933 18.9663C12.1649 18.9721 11.7247 18.9969 11.2983 19.0084C11.1776 19.0115 11.0573 19.0145 10.9397 19.0144C10.249 19.0217 9.65036 18.9237 9.37238 18.7514C9.22855 18.666 9.15017 18.5879 9.07577 18.4534C9.00392 18.3179 8.93594 18.098 8.93545 17.7246C8.93473 17.3214 9.02122 16.7486 9.24912 16.002C9.32378 15.7565 9.29787 15.4913 9.17707 15.2649C9.05628 15.0385 8.85049 14.8693 8.60497 14.7945C8.59844 14.7925 8.59203 14.7915 8.5855 14.7897V12.2679C8.84981 11.8438 9.52419 11.0864 10.7023 11.7888C13.8942 13.6914 14.0893 9.24825 14.0893 9.24825C14.0893 9.24825 12.4159 10.1758 11.2062 9.08713C10.1824 8.16573 8.94235 8.6883 8.58538 8.87072V8.4823H8.1418V14.77C7.96856 14.8029 7.80764 14.8826 7.67643 15.0005C7.54522 15.1183 7.44872 15.2697 7.39737 15.4384C7.1321 16.3129 7.00097 17.0582 7 17.7243C6.99952 18.3345 7.11552 18.8885 7.36629 19.3609C7.74152 20.0794 8.40792 20.5099 9.0419 20.7069C9.68363 20.9118 10.3297 20.9476 10.9397 20.9496C10.9731 20.9496 11.0061 20.9489 11.0394 20.9487C11.2897 20.9465 11.5336 20.9386 11.7653 20.9294L11.7654 25.8766Z" fill="#45766A"/>
<path d="M15.4807 18.2337C16.7729 18.0217 17.7585 16.9005 17.7585 15.5486C17.7585 14.0453 16.5402 12.8269 15.0368 12.8269C13.5337 12.8269 12.3151 14.0453 12.3151 15.5486C12.3151 16.9005 13.3009 18.0217 14.5928 18.2337C14.7374 18.2574 14.8856 18.2704 15.0368 18.2704C15.188 18.2704 15.3363 18.2575 15.4807 18.2337ZM29.2229 24.1174C29.101 22.8997 28.8281 22.1248 28.4882 21.6051C28.2574 21.2548 27.987 21.0298 27.7376 20.9054C27.488 20.7797 27.2691 20.7546 27.1444 20.7551H27.1441C27.1409 20.7551 27.138 20.7541 27.1347 20.7541H26.6503C26.8712 21.6864 26.9292 22.5453 26.9292 23.1876C26.9292 23.5745 26.9084 23.8826 26.8897 24.082V25.3736H24.6634V24.0837C24.6363 23.7858 24.623 23.4869 24.6237 23.1877C24.6237 22.5453 24.6816 21.6866 24.9026 20.7543H24.4184C24.4151 20.7543 24.412 20.7552 24.4089 20.7552H24.4082C24.2838 20.7548 24.0645 20.7796 23.8153 20.9055C23.437 21.0929 23.0295 21.5032 22.7441 22.2299C22.4554 22.9597 22.2615 24.0147 22.2605 25.6078C22.2607 26.0195 22.2737 26.4672 22.3026 26.955C22.311 27.0981 22.3738 27.2326 22.478 27.331C22.5823 27.4294 22.7202 27.4843 22.8635 27.4844C22.8746 27.4844 22.8858 27.484 22.897 27.4835C23.0459 27.4747 23.1853 27.4072 23.2844 27.2957C23.3835 27.1842 23.4342 27.0379 23.4255 26.889C23.3996 26.4624 23.3863 26.0352 23.3856 25.6078C23.3831 23.9048 23.6313 22.9498 23.8754 22.4508V32.9959C23.8754 33.2264 23.967 33.4475 24.13 33.6105C24.293 33.7736 24.5141 33.8651 24.7447 33.8651C24.9752 33.8651 25.1963 33.7736 25.3593 33.6105C25.5223 33.4475 25.6139 33.2264 25.6139 32.9959V26.6492H25.9397V32.9959C25.9397 33.2264 26.0313 33.4476 26.1943 33.6106C26.3574 33.7737 26.5785 33.8653 26.8091 33.8653C27.0396 33.8653 27.2608 33.7737 27.4238 33.6106C27.5868 33.4476 27.6784 33.2264 27.6784 32.9959V22.4532C27.72 22.5385 27.762 22.6365 27.8034 22.7507C28.0017 23.3002 28.1682 24.2013 28.1677 25.608C28.1677 25.9955 28.1552 26.4215 28.1281 26.8893C28.1162 27.0942 28.2166 27.2781 28.3747 27.3857C28.431 26.3378 28.5879 25.4955 28.8512 24.8296C28.963 24.5435 29.0903 24.3097 29.2229 24.1174Z" fill="#45766A"/>
<path d="M24.8345 23.1876C24.8345 23.5101 24.8494 23.7759 24.8651 23.9675H26.688C26.7035 23.7759 26.7184 23.5101 26.7184 23.1876C26.7184 22.5465 26.6583 21.6845 26.4326 20.7542H25.1203C24.8946 21.6846 24.8345 22.5466 24.8345 23.1876Z" fill="#45766A"/>
<path d="M25.7766 20.3537C26.6502 20.3537 27.3584 19.6455 27.3584 18.7718C27.3584 17.8982 26.6502 17.1899 25.7766 17.1899C24.9029 17.1899 24.1947 17.8982 24.1947 18.7718C24.1947 19.6455 24.9029 20.3537 25.7766 20.3537Z" fill="#45766A"/>
<path d="M25.775 25.104C25.9933 25.104 26.1704 24.9269 26.1704 24.7085C26.1704 24.4902 25.9933 24.3131 25.775 24.3131C25.5566 24.3131 25.3795 24.4902 25.3795 24.7085C25.3795 24.9269 25.5566 25.104 25.775 25.104Z" fill="#45766A"/>
<path d="M31.2881 20.6253H33.4501C33.1707 20.1774 32.6751 19.8784 32.1082 19.8784C31.2346 19.8784 30.5264 20.5866 30.5264 21.4602C30.5264 22.3339 31.2346 23.0422 32.1082 23.0422C32.6971 23.0422 33.2099 22.7197 33.4822 22.2422H31.288V20.6253H31.2881Z" fill="#45766A"/>
<path d="M32.6357 21.8672C32.8751 21.8672 33.0692 21.6731 33.0692 21.4337C33.0692 21.1942 32.8751 21.0001 32.6357 21.0001C32.3963 21.0001 32.2021 21.1942 32.2021 21.4337C32.2021 21.6731 32.3963 21.8672 32.6357 21.8672Z" fill="#45766A"/>
<path d="M36.0585 23.8227C36.0536 23.462 35.9287 23.1175 35.7053 22.6731C35.4787 22.231 35.1392 21.6952 34.649 21.0209C34.6056 20.9611 34.5508 20.9105 34.4878 20.8719C34.4248 20.8334 34.3548 20.8076 34.2818 20.7961C34.2089 20.7845 34.1343 20.7875 34.0625 20.8048C33.9907 20.8221 33.923 20.8534 33.8632 20.8969C33.8035 20.9404 33.7529 20.9951 33.7144 21.0581C33.6758 21.1211 33.6501 21.1911 33.6386 21.264C33.6271 21.337 33.6301 21.4115 33.6474 21.4833C33.6647 21.5551 33.6959 21.6228 33.7394 21.6825C34.2078 22.326 34.519 22.8229 34.7041 23.1853C34.8226 23.4122 34.8849 23.5882 34.9137 23.6987C34.7538 23.6945 34.497 23.6454 34.2486 23.5865C34.1147 23.5555 33.9812 23.523 33.8515 23.4962C33.7424 23.4744 33.6398 23.4553 33.5219 23.4483C33.5035 23.4464 33.4855 23.4426 33.4666 23.4426H30.7503C30.7472 23.4426 30.7441 23.4436 30.7409 23.4436H30.7403C30.6154 23.4431 30.3965 23.4682 30.1472 23.5938C29.769 23.7815 29.3614 24.1915 29.076 24.9183C28.7874 25.6481 28.5935 26.7033 28.5925 28.2961C28.5925 28.7082 28.6058 29.1556 28.6345 29.6433C28.6432 29.7922 28.7107 29.9316 28.8222 30.0307C28.9337 30.1298 29.0799 30.1806 29.2288 30.1718C29.3777 30.1631 29.517 30.0957 29.6162 29.9842C29.7153 29.8728 29.7661 29.7265 29.7574 29.5777C29.7316 29.151 29.7183 28.7236 29.7175 28.2961C29.7151 26.5934 29.9634 25.6386 30.2072 25.1394V35.6842C30.2072 36.1646 30.5964 36.5535 31.0764 36.5535C31.5564 36.5535 31.9457 36.1646 31.9457 35.6842V29.3378H32.2715V35.6842C32.2715 35.9148 32.363 36.1359 32.5261 36.2989C32.6891 36.4619 32.9102 36.5535 33.1407 36.5535C33.2549 36.5535 33.368 36.5311 33.4734 36.4874C33.5789 36.4437 33.6748 36.3797 33.7555 36.299C33.8363 36.2183 33.9003 36.1224 33.944 36.017C33.9877 35.9115 34.0102 35.7984 34.0102 35.6842V24.6856C34.0766 24.7009 34.1447 24.7163 34.2155 24.7314C34.444 24.7789 34.6875 24.8229 34.9448 24.8241C35.1606 24.821 35.406 24.799 35.6583 24.6312C35.7895 24.5411 35.8946 24.4179 35.9628 24.274C36.032 24.1275 36.0588 23.9714 36.0585 23.8227Z" fill="#45766A"/>
</g>
<defs>
<clipPath id="clip0_1_248">
<rect width="36" height="36" fill="white" transform="translate(7 7)"/>
</clipPath>
</defs>
</svg>
